PathFileType	4	(X/Y/Z)	c:/Users/goper/Files/vsCode/490R/osim_files/C06/C06_SSWS_03.trc
DataRate	CameraRate	NumFrames	NumMarkers	Units                	OrigDataRate	OrigDataStartFrame	OrigNumFrames
250.00	250.00	9	36	mm	250.0	1418	2268
                Frame#	Time	LPSIS			LASIS			LTH1			LTH2			LTH3			LTH4			LLFE			LMFE			LSH1			LSH2			LSH3			LSH4			LLMAL			LMMAL			LCAL			LMTP5			LTOE			LMTP1			RPSIS			RASIS			RTH1			RTH2			RTH3			RTH4			RLFE			RMFE			RSH1			RSH2			RSH3			RSH4			RLMAL			RMMAL			RCAL			RMTP1			RTOE			RMTP5		
		X1	Y1	Z1	X2	Y2	Z2	X3	Y3	Z3	X4	Y4	Z4	X5	Y5	Z5	X6	Y6	Z6	X7	Y7	Z7	X8	Y8	Z8	X9	Y9	Z9	X10	Y10	Z10	X11	Y11	Z11	X12	Y12	Z12	X13	Y13	Z13	X14	Y14	Z14	X15	Y15	Z15	X16	Y16	Z16	X17	Y17	Z17	X18	Y18	Z18	X19	Y19	Z19	X20	Y20	Z20	X21	Y21	Z21	X22	Y22	Z22	X23	Y23	Z23	X24	Y24	Z24	X25	Y25	Z25	X26	Y26	Z26	X27	Y27	Z27	X28	Y28	Z28	X29	Y29	Z29	X30	Y30	Z30	X31	Y31	Z31	X32	Y32	Z32	X33	Y33	Z33	X34	Y34	Z34	X35	Y35	Z35	X36	Y36	Z36

1418	5.66800	-2426.75488	1015.98151	113.74214	-2604.49585	992.22540	206.91116	-2582.49487	782.68884	280.66110	-2605.40405	723.95874	280.58582	-2645.55762	804.90442	257.98398	-2664.16943	746.40240	260.33057	-2681.25659	489.04886	236.96756	-2683.07202	468.57770	122.74435	-2566.46509	436.08517	248.56554	-2546.14136	397.24176	246.47049	-2619.73145	401.64966	251.90479	-2592.68872	366.30792	251.41560	-2415.23608	197.36157	202.32323	-2449.59717	205.08406	129.77808	-2360.33472	221.73663	147.46361	-2451.41797	79.23994	236.92082	-2514.37427	60.62948	181.81665	-2492.07373	62.85126	132.03087	-2420.29272	1018.01068	42.87453	-2603.15088	991.95673	-28.59932	-2521.96021	786.10583	-105.61495	-2537.00635	722.85010	-96.05470	-2598.88599	796.65814	-92.48132	-2601.83594	733.87427	-86.67776	-2560.78052	459.71582	-35.16504	-2578.36743	476.59515	69.58514	-2499.88916	386.38699	-50.06017	-2496.93872	338.65100	-48.25177	-2560.71411	377.03360	-42.62584	-2552.75220	328.96964	-39.07100	-2504.00439	92.09171	10.16027	-2521.07227	117.03977	86.76257	-2436.05298	70.24671	57.28345	-2641.71338	38.77747	99.62724	-2662.21118	58.24060	52.52789	-2616.07397	35.94920	-16.50474
1419	5.67200	-2429.90649	1016.55591	113.63601	-2609.19702	992.97083	206.46687	-2587.01221	782.97333	280.49860	-2611.95068	725.03638	280.41599	-2651.27661	806.28168	257.68741	-2670.37646	747.89996	259.98102	-2689.88086	490.79401	236.34047	-2691.61377	470.51144	122.20230	-2576.33105	435.24426	248.32541	-2556.63818	396.22797	246.25807	-2630.11279	401.92816	251.33463	-2603.79492	366.17075	250.91168	-2429.39844	193.88739	202.17891	-2463.49268	202.27898	129.49635	-2373.60376	216.47534	147.25749	-2469.29272	76.96163	236.94952	-2532.48633	60.14191	181.69415	-2509.48560	61.74815	131.85982	-2426.52832	1017.52881	43.11545	-2607.41162	992.06775	-28.88672	-2525.07056	786.38177	-105.81993	-2539.86694	723.34955	-96.29939	-2602.14722	796.49152	-92.73804	-2604.65454	733.66608	-86.90531	-2561.27539	459.79877	-35.37448	-2579.25391	476.65311	69.28094	-2500.03369	386.60687	-49.94862	-2497.08057	338.83145	-48.26013	-2560.85059	377.14548	-42.93684	-2552.18677	329.11429	-39.33264	-2504.05688	92.18581	10.19684	-2521.28760	117.17998	86.74396	-2436.09033	70.32190	57.32788	-2641.75000	38.78290	99.58273	-2662.24512	58.15817	52.50311	-2616.10352	35.88501	-16.54809
1420	5.67600	-2434.22314	1016.67212	113.65568	-2613.62891	993.56720	205.90796	-2591.33960	783.15314	280.35751	-2618.10449	725.86200	280.17001	-2657.01025	807.58435	257.44315	-2676.59741	749.35608	259.65219	-2698.40039	492.28616	235.80945	-2700.02930	472.40277	121.72496	-2585.71948	434.53931	248.09909	-2567.01245	395.02444	245.90514	-2640.38623	402.16721	250.86110	-2614.67236	365.93927	250.36494	-2443.47559	190.34529	201.76425	-2477.37329	199.40877	129.16803	-2386.98291	211.01772	147.13039	-2486.89258	74.53248	237.01913	-2551.07690	59.89257	181.79048	-2526.91333	60.47354	131.27974	-2431.04663	1017.41833	43.12979	-2611.45532	992.11145	-29.27189	-2528.13281	786.64954	-106.06648	-2542.72778	723.81836	-96.53934	-2605.35278	796.33026	-93.05006	-2607.68555	733.58636	-87.12358	-2561.84106	459.92188	-35.56341	-2580.31274	476.71954	69.08428	-2500.33594	386.80099	-49.83145	-2498.17773	339.14597	-47.98384	-2561.02783	377.25006	-43.14777	-2552.23779	329.24619	-39.55686	-2504.16748	92.23660	10.21604	-2521.05347	117.37706	86.64099	-2436.12329	70.40901	57.35686	-2641.75977	38.77732	99.56436	-2662.31226	58.09871	52.50577	-2616.08594	35.84692	-16.56116
1421	5.68000	-2437.01562	1017.31689	113.40984	-2618.23608	994.10443	205.42079	-2597.01440	783.80377	280.33795	-2624.61646	726.87335	280.02783	-2662.72241	808.78162	257.23526	-2682.72266	750.66046	259.36789	-2706.81616	493.86008	235.23083	-2708.36084	474.16379	121.18023	-2595.31348	433.66446	247.86043	-2577.27686	393.78476	245.59293	-2650.61377	402.44754	250.32635	-2625.76025	365.75031	249.86302	-2457.98291	186.68857	201.49887	-2491.41333	196.52948	128.83728	-2400.59839	205.41780	147.02582	-2505.50732	72.56796	236.88405	-2568.14575	58.57291	180.25903	-2545.53882	59.39308	131.15973	-2435.52319	1017.29657	43.17532	-2615.81226	992.14166	-29.65083	-2531.51831	786.85858	-106.22694	-2545.59009	724.25439	-96.77322	-2608.66919	796.20142	-93.29556	-2610.61719	733.42853	-87.32201	-2562.53882	460.04965	-35.72132	-2581.28052	476.75467	68.88972	-2500.62915	386.99677	-49.75540	-2498.42480	339.39227	-47.97907	-2561.19849	377.28326	-43.31287	-2552.38721	329.41339	-39.75437	-2504.17920	92.38096	10.20688	-2522.62720	117.28122	86.86359	-2436.11377	70.51453	57.36280	-2641.76147	38.74617	99.55471	-2662.36401	57.88300	52.74016	-2616.09766	35.79684	-16.55015
1422	5.68400	-2444.52271	1016.32050	113.68678	-2622.88770	994.62451	204.95284	-2602.88550	784.43713	280.28049	-2631.06201	727.76801	279.86005	-2668.38770	809.93207	257.08075	-2688.80347	751.93732	259.02399	-2715.17456	495.23022	234.66054	-2715.86206	475.52649	120.72852	-2604.85376	432.84915	247.58141	-2587.42578	392.48413	245.22346	-2662.37354	401.57983	250.79213	-2636.48169	365.41925	249.30457	-2473.00830	182.84447	201.33388	-2505.63599	193.49959	128.53770	-2414.41675	199.63484	146.94777	-2523.84497	70.57429	236.73775	-2586.64160	58.32607	180.06361	-2563.31152	58.32128	131.12024	-2439.79126	1017.17297	43.23225	-2619.93384	992.16162	-29.99381	-2534.68994	787.06958	-106.45976	-2548.45410	724.65521	-96.99977	-2612.02759	796.06671	-93.50412	-2613.56250	733.24951	-87.51056	-2563.19287	460.18274	-35.91115	-2582.30444	476.66132	68.68023	-2500.98291	387.22949	-49.72589	-2498.83179	339.62354	-47.98116	-2561.47632	377.40497	-43.50542	-2552.58252	329.57468	-39.96890	-2504.21167	92.47978	10.18786	-2522.80518	117.44518	86.81792	-2436.15723	70.59469	57.36079	-2641.78662	38.73096	99.55534	-2662.41040	57.83474	52.71295	-2616.11279	35.77605	-16.55436
1423	5.68800	-2448.30786	1016.47083	113.52829	-2627.34546	994.98785	204.39618	-2608.67017	784.96265	280.21179	-2636.99976	728.74023	279.47937	-2674.07544	811.05713	256.91370	-2694.78198	753.12012	258.68591	-2723.43726	496.62619	234.05779	-2727.38770	479.33456	118.67728	-2614.28369	431.89349	247.33807	-2597.70825	391.20966	244.95244	-2672.64380	401.98511	250.36533	-2647.40991	365.22382	248.83218	-2487.87256	179.05374	201.05255	-2519.77319	190.47913	128.15916	-2427.87598	194.01422	146.70215	-2542.39111	68.69077	236.70090	-2606.45776	56.01433	181.87233	-2581.12061	56.99976	130.70322	-2444.10352	1017.06848	43.29840	-2624.07495	992.07410	-30.31002	-2537.88477	787.27246	-106.66560	-2551.32080	725.01849	-97.21770	-2615.24780	795.84821	-93.67391	-2616.48218	733.06232	-87.75812	-2563.86230	460.28421	-36.04442	-2583.31763	476.05222	68.90132	-2501.33105	387.51352	-49.74339	-2499.17212	339.87347	-47.99728	-2561.87500	377.52908	-43.72538	-2552.81445	329.70453	-40.10973	-2504.35718	92.52745	10.16480	-2522.98511	117.63239	86.79562	-2436.15625	70.69633	57.39670	-2643.01050	36.86976	98.95368	-2662.44434	57.81603	52.69279	-2616.11890	35.74871	-16.57355
1424	5.69200	-2453.46826	1016.04248	113.84480	-2631.99512	995.30603	203.97363	-2614.69897	785.54065	280.18832	-2643.20142	729.42401	279.29025	-2679.71411	812.07800	256.66879	-2700.79639	754.23236	258.39017	-2731.44751	497.95615	233.39714	-2732.10132	478.53537	119.36961	-2623.70068	430.90631	246.99255	-2608.12305	389.97470	244.74783	-2682.15771	402.22363	249.62273	-2658.31982	365.02283	248.36842	-2502.37817	175.94789	201.35536	-2534.07446	187.33092	127.80429	-2442.79932	187.69200	146.82666	-2560.88477	66.79462	236.53952	-2625.10547	55.60304	181.49835	-2599.59473	56.03755	130.48055	-2448.40552	1016.81427	43.41814	-2628.26953	991.96307	-30.68880	-2541.01660	787.40564	-106.93934	-2554.19067	725.34192	-97.42572	-2618.45605	795.63464	-93.83599	-2619.53442	732.90381	-87.81944	-2564.71143	460.39868	-36.21176	-2584.46680	476.62793	68.21825	-2501.80200	387.80176	-49.77850	-2499.64697	340.07162	-48.04454	-2562.41577	377.66956	-43.86163	-2552.41846	329.11862	-40.24438	-2504.39136	92.63118	10.12966	-2523.20044	117.82901	86.74454	-2436.17310	70.77289	57.36023	-2643.08740	36.94647	99.04641	-2662.48682	57.77865	52.67028	-2616.12573	35.73655	-16.55846
1425	5.69600	-2457.83740	1015.88348	113.96423	-2636.59155	995.60345	203.47461	-2620.47192	786.04663	280.15808	-2649.33447	730.02960	279.12915	-2685.30249	812.99274	256.46167	-2706.76733	755.25836	258.08426	-2739.49512	499.20090	232.75763	-2739.87109	479.88049	118.77665	-2633.00488	429.87808	246.72406	-2618.36035	388.62814	244.51482	-2692.12280	402.54614	249.02628	-2668.87231	364.65408	247.83308	-2517.23071	172.17542	200.83519	-2548.52783	184.18623	127.43941	-2457.19360	181.79366	146.74329	-2579.47290	64.86380	236.36519	-2643.75439	56.00978	181.25528	-2618.13818	55.07355	130.39449	-2452.58667	1016.60077	43.52538	-2632.56763	991.88416	-31.01286	-2544.21680	787.57678	-107.11231	-2557.06470	725.62323	-97.62254	-2621.77344	795.47760	-93.92545	-2622.51733	732.67200	-87.95378	-2565.48169	460.48846	-36.33532	-2585.46021	476.53809	67.99220	-2502.47827	388.06445	-49.83098	-2500.22192	340.30969	-48.09370	-2562.94116	377.76797	-43.91195	-2553.54224	329.89926	-40.36244	-2504.42920	92.70028	10.13576	-2523.44019	118.05356	86.72146	-2436.16626	70.84537	57.37652	-2643.12036	36.97565	99.08691	-2662.51880	57.75674	52.64915	-2616.11841	35.74595	-16.54821
1426	5.70000	-2462.24756	1015.66962	114.04925	-2641.06104	995.70905	202.96442	-2626.24268	786.39856	280.11365	-2655.51611	730.64240	278.93857	-2692.98975	815.03595	256.51013	-2712.63892	756.19189	257.73706	-2747.54443	500.45071	231.96245	-2747.63525	481.24680	118.13018	-2642.29199	428.83884	246.40736	-2628.64551	387.29309	244.25566	-2701.87451	402.80392	248.45004	-2679.60083	364.39749	247.30701	-2532.91846	168.06487	200.71211	-2564.64209	180.82512	127.01980	-2472.75879	175.51636	146.35199	-2598.11646	63.01406	236.21997	-2662.36841	56.03817	180.89165	-2634.83423	52.21623	130.82072	-2456.90479	1016.35028	43.64011	-2636.60718	991.69885	-31.32747	-2547.66479	787.52570	-107.36137	-2559.94312	725.85999	-97.80685	-2625.03149	795.21692	-94.06372	-2625.52075	732.43018	-88.06759	-2566.50977	460.51108	-36.46828	-2586.77637	476.57581	67.72344	-2503.02002	388.28821	-49.91389	-2499.91235	340.29871	-48.40031	-2563.51416	377.88528	-44.04427	-2554.02124	330.00558	-40.47180	-2504.57373	92.73449	10.12486	-2523.59888	118.28342	86.61360	-2436.21704	70.90852	57.39003	-2643.52026	37.04240	99.13383	-2662.53174	57.69017	52.62860	-2616.14868	35.69910	-16.54757
